<?xml version="1.0" encoding="UTF-8"?>
<svg version="1.1" xmlns="http://www.w3.org/2000/svg" width="50" height="50">
<path d="M0 0 C6.29671422 3.64546613 10.25669741 9.1292571 12.5 16 C13.52913515 24.87222827 13.0486814 32.74403202 7.5 40 C1.70011527 45.61279168 -4.07911606 48.28314107 -12.1875 48.4375 C-19.92067973 48.2998413 -25.89547136 46.7246796 -31.375 41.0625 C-37.56741076 33.20290173 -38.52404309 25.88471072 -37.5 16 C-35.36807613 8.57297219 -31.1945133 3.75298473 -24.5 0 C-16.99776845 -3.63173353 -7.55303575 -3.4040237 0 0 Z " fill="#4BAC4F" transform="translate(37.5,2)"/>
<path d="M0 0 C0 1.32 0 2.64 0 4 C-3.68099007 3.53987624 -7.01654417 2.99525254 -10.59375 1.96875 C-15.56645729 0.70135545 -20.3972954 0.77858262 -25.5 0.875 C-26.4178125 0.88402344 -27.335625 0.89304687 -28.28125 0.90234375 C-30.52111556 0.92567568 -32.76041183 0.95840765 -35 1 C-34.67 -0.65 -34.34 -2.3 -34 -4 C-22.55431918 -7.62694301 -10.4467902 -5.08713262 0 0 Z " fill="#232923" transform="translate(43,18)"/>
<path d="M0 0 C2.29387453 0.93405251 4.48353147 1.91182268 6.65234375 3.10546875 C6.65234375 4.42546875 6.65234375 5.74546875 6.65234375 7.10546875 C4.09906697 6.66776416 1.9172726 6.23793318 -0.41015625 5.07421875 C-4.66558446 3.67083285 -8.71292531 3.89424354 -13.16015625 3.98046875 C-14.48563477 3.99400391 -14.48563477 3.99400391 -15.83789062 4.0078125 C-18.00792984 4.03127238 -20.17782872 4.0671401 -22.34765625 4.10546875 C-22.34765625 2.78546875 -22.34765625 1.46546875 -22.34765625 0.10546875 C-16.54403573 -2.79634151 -6.15015054 -1.64338912 0 0 Z " fill="#232923" transform="translate(32.34765625,22.89453125)"/>
<path d="M0 0 C2.08099065 0.94076734 4.05657192 1.92097582 6.0078125 3.10546875 C5.6778125 4.09546875 5.3478125 5.08546875 5.0078125 6.10546875 C3.8528125 5.61046875 2.6978125 5.11546875 1.5078125 4.60546875 C-5.44990805 2.22666541 -12.74254528 2.86529655 -19.9921875 3.10546875 C-19.9921875 2.11546875 -19.9921875 1.12546875 -19.9921875 0.10546875 C-14.70500028 -2.53812486 -5.54934331 -1.65900734 0 0 Z " fill="#242B24" transform="translate(30.9921875,30.89453125)"/>
</svg>
